<svg width="147" height="24" viewBox="0 0 147 24" fill="none" xmlns="http://www.w3.org/2000/svg">
<path d="M36.9985 5.00919C38.5507 5.00919 39.7552 5.4181 40.612 6.23593C41.4687 7.05376 41.9444 7.98285 42.039 9.02322H40.42C40.2364 8.23321 39.8692 7.60732 39.3185 7.14555C38.7732 6.68379 38.0055 6.4529 37.0152 6.4529C35.8079 6.4529 34.8315 6.87851 34.086 7.72971C33.3461 8.57536 32.9761 9.87442 32.9761 11.6269C32.9761 13.0623 33.3099 14.2278 33.9775 15.1235C34.6507 16.0137 35.6521 16.4588 36.9818 16.4588C38.2058 16.4588 39.1376 15.9887 39.7774 15.0484C40.1168 14.5533 40.3699 13.9024 40.5368 13.0957H42.1558C42.0112 14.3864 41.5327 15.4685 40.7204 16.3419C39.7468 17.3934 38.4339 17.9192 36.7815 17.9192C35.3573 17.9192 34.1611 17.488 33.1931 16.6257C31.9191 15.4852 31.2821 13.7243 31.2821 11.3432C31.2821 9.53505 31.7605 8.05239 32.7174 6.8952C33.7522 5.63786 35.1792 5.00919 36.9985 5.00919ZM47.5301 16.634C48.526 16.634 49.2075 16.2585 49.5747 15.5074C49.9474 14.7508 50.1338 13.9107 50.1338 12.9872C50.1338 12.1527 50.0003 11.4739 49.7332 10.951C49.3104 10.1276 48.5816 9.71587 47.5468 9.71587C46.6288 9.71587 45.9612 10.0664 45.5439 10.7674C45.1267 11.4684 44.9181 12.314 44.9181 13.3043C44.9181 14.2556 45.1267 15.0484 45.5439 15.6827C45.9612 16.3169 46.6233 16.634 47.5301 16.634ZM47.5885 8.40567C48.7401 8.40567 49.7138 8.78955 50.5093 9.55731C51.3049 10.3251 51.7027 11.4544 51.7027 12.9454C51.7027 14.3864 51.3522 15.577 50.6512 16.5172C49.9502 17.4574 48.8625 17.9275 47.3882 17.9275C46.1587 17.9275 45.1823 17.513 44.4591 16.6841C43.7358 15.8496 43.3742 14.7313 43.3742 13.3293C43.3742 11.8272 43.7553 10.6311 44.5175 9.7409C45.2797 8.85075 46.3034 8.40567 47.5885 8.40567ZM53.5386 8.66437H54.9656V10.2082C55.0825 9.9078 55.369 9.5434 55.8252 9.11501C56.2814 8.68106 56.8071 8.46409 57.4024 8.46409C57.4303 8.46409 57.4775 8.46687 57.5443 8.47243C57.6111 8.478 57.7251 8.48913 57.8865 8.50582V10.0914C57.7974 10.0747 57.714 10.0636 57.6361 10.058C57.5638 10.0525 57.4831 10.0497 57.3941 10.0497C56.6375 10.0497 56.0561 10.2945 55.6499 10.784C55.2438 11.2681 55.0408 11.8272 55.0408 12.4614V17.6021H53.5386V8.66437ZM59.1883 8.66437H60.6153V9.93284C61.0381 9.40988 61.486 9.03434 61.9589 8.80624C62.4318 8.57814 62.9575 8.46409 63.5361 8.46409C64.8046 8.46409 65.6614 8.90638 66.1064 9.79097C66.3512 10.275 66.4736 10.9676 66.4736 11.8689V17.6021H64.9465V11.9691C64.9465 11.4238 64.8658 10.9843 64.7045 10.6505C64.4374 10.0942 63.9534 9.81601 63.2524 9.81601C62.8963 9.81601 62.6043 9.85217 62.3762 9.92449C61.9645 10.0469 61.6028 10.2917 61.2913 10.6589C61.0409 10.9537 60.8768 11.2597 60.7989 11.5768C60.7266 11.8884 60.6904 12.3362 60.6904 12.9204V17.6021H59.1883V8.66437ZM72.4237 8.46409C73.058 8.46409 73.6727 8.6143 74.268 8.91473C74.8633 9.20959 75.3167 9.59347 75.6283 10.0664C75.9287 10.517 76.129 11.0427 76.2291 11.6436C76.3182 12.0553 76.3627 12.7118 76.3627 13.6131H69.8117C69.8395 14.5199 70.0537 15.2487 70.4543 15.7995C70.8548 16.3447 71.4752 16.6173 72.3153 16.6173C73.0997 16.6173 73.7256 16.3586 74.1929 15.8412C74.46 15.5408 74.6491 15.1931 74.7604 14.7981H76.2375C76.1985 15.1263 76.0678 15.4935 75.8453 15.8996C75.6283 16.3002 75.3835 16.6284 75.1109 16.8844C74.6547 17.3294 74.09 17.6299 73.4168 17.7856C73.0552 17.8747 72.6463 17.9192 72.1901 17.9192C71.0774 17.9192 70.1344 17.5158 69.3611 16.7091C68.5877 15.8969 68.2011 14.7619 68.2011 13.3043C68.2011 11.8689 68.5905 10.7034 69.3694 9.80766C70.1483 8.91195 71.1664 8.46409 72.4237 8.46409ZM74.8188 12.4197C74.7576 11.7688 74.6157 11.2486 74.3932 10.8592C73.9815 10.1359 73.2944 9.77428 72.3319 9.77428C71.6421 9.77428 71.0635 10.0246 70.5961 10.5253C70.1288 11.0205 69.8812 11.6519 69.8534 12.4197H74.8188ZM78.257 5.343H79.7591V17.6021H78.257V5.343ZM82.0624 5.343H83.5645V17.6021H82.0624V5.343ZM92.3186 12.5783L90.4576 7.16224L88.4798 12.5783H92.3186ZM89.5898 5.343H91.4674L95.9154 17.6021H94.0961L92.8527 13.9302H88.0042L86.6773 17.6021H84.9749L89.5898 5.343ZM100.998 16.5923C101.699 16.5923 102.28 16.3002 102.742 15.716C103.209 15.1263 103.443 14.2473 103.443 13.079C103.443 12.3668 103.34 11.7549 103.134 11.243C102.745 10.2583 102.032 9.76594 100.998 9.76594C99.9572 9.76594 99.2451 10.2861 98.8612 11.3265C98.6554 11.8828 98.5525 12.5894 98.5525 13.4462C98.5525 14.136 98.6554 14.723 98.8612 15.207C99.2507 16.1305 99.9628 16.5923 100.998 16.5923ZM97.1088 8.7061H98.5692V9.89111C98.8696 9.48498 99.1978 9.17065 99.5539 8.94811C100.06 8.6143 100.655 8.4474 101.34 8.4474C102.352 8.4474 103.212 8.83684 103.918 9.61572C104.625 10.389 104.978 11.4962 104.978 12.9371C104.978 14.8843 104.469 16.2752 103.451 17.1097C102.806 17.6382 102.055 17.9025 101.198 17.9025C100.525 17.9025 99.96 17.755 99.5038 17.4602C99.2368 17.2933 98.9391 17.0068 98.6109 16.6006V21.1654H97.1088V8.7061ZM110.511 16.5923C111.212 16.5923 111.793 16.3002 112.255 15.716C112.723 15.1263 112.956 14.2473 112.956 13.079C112.956 12.3668 112.853 11.7549 112.647 11.243C112.258 10.2583 111.546 9.76594 110.511 9.76594C109.471 9.76594 108.759 10.2861 108.375 11.3265C108.169 11.8828 108.066 12.5894 108.066 13.4462C108.066 14.136 108.169 14.723 108.375 15.207C108.764 16.1305 109.476 16.5923 110.511 16.5923ZM106.622 8.7061H108.083V9.89111C108.383 9.48498 108.711 9.17065 109.067 8.94811C109.574 8.6143 110.169 8.4474 110.853 8.4474C111.866 8.4474 112.725 8.83684 113.432 9.61572C114.138 10.389 114.492 11.4962 114.492 12.9371C114.492 14.8843 113.983 16.2752 112.965 17.1097C112.319 17.6382 111.568 17.9025 110.711 17.9025C110.038 17.9025 109.474 17.755 109.017 17.4602C108.75 17.2933 108.453 17.0068 108.124 16.6006V21.1654H106.622V8.7061ZM121.16 16.1834C121.721 16.1834 122.183 16.125 122.545 16.0081C123.19 15.7911 123.719 15.3739 124.13 14.7563C124.459 14.2612 124.695 13.627 124.84 12.8536C124.923 12.3919 124.965 11.9635 124.965 11.5685C124.965 10.0497 124.662 8.87022 124.055 8.03014C123.454 7.19006 122.484 6.77002 121.143 6.77002H118.197V16.1834H121.16ZM116.528 5.343H121.493C123.179 5.343 124.486 5.94107 125.416 7.13721C126.245 8.21652 126.659 9.59903 126.659 11.2848C126.659 12.5866 126.414 13.7633 125.925 14.8148C125.062 16.673 123.58 17.6021 121.477 17.6021H116.528V5.343ZM132.325 8.46409C132.96 8.46409 133.574 8.6143 134.17 8.91473C134.765 9.20959 135.218 9.59347 135.53 10.0664C135.83 10.517 136.031 11.0427 136.131 11.6436C136.22 12.0553 136.264 12.7118 136.264 13.6131H129.713C129.741 14.5199 129.955 15.2487 130.356 15.7995C130.756 16.3447 131.377 16.6173 132.217 16.6173C133.001 16.6173 133.627 16.3586 134.095 15.8412C134.362 15.5408 134.551 15.1931 134.662 14.7981H136.139C136.1 15.1263 135.969 15.4935 135.747 15.8996C135.53 16.3002 135.285 16.6284 135.013 16.8844C134.556 17.3294 133.992 17.6299 133.318 17.7856C132.957 17.8747 132.548 17.9192 132.092 17.9192C130.979 17.9192 130.036 17.5158 129.263 16.7091C128.489 15.8969 128.103 14.7619 128.103 13.3043C128.103 11.8689 128.492 10.7034 129.271 9.80766C130.05 8.91195 131.068 8.46409 132.325 8.46409ZM134.72 12.4197C134.659 11.7688 134.517 11.2486 134.295 10.8592C133.883 10.1359 133.196 9.77428 132.234 9.77428C131.544 9.77428 130.965 10.0246 130.498 10.5253C130.03 11.0205 129.783 11.6519 129.755 12.4197H134.72ZM138.851 8.66437L141.238 15.9414L143.733 8.66437H145.377L142.006 17.6021H140.403L137.107 8.66437H138.851Z" fill="#707070"/>
<path fill-rule="evenodd" clip-rule="evenodd" d="M3.20455 0C1.43472 0 0 1.43473 0 3.20455V20.2955C0 22.0653 1.43473 23.5 3.20455 23.5H4.00245V15.3723C4.00245 14.7841 4.14816 14.2051 4.42656 13.687L10.8779 1.68053C11.286 0.920987 12.3755 0.921519 12.7829 1.68146L19.4305 14.0822C19.5691 14.3409 19.6417 14.6298 19.6417 14.9233V23.5H20.2955C22.0653 23.5 23.5 22.0653 23.5 20.2955V3.20455C23.5 1.43472 22.0653 0 20.2955 0H3.20455ZM18.5447 23.5V14.9331L12.3896 11.2967V22.8892V22.9363C12.3896 23.242 12.6361 23.491 12.9399 23.5H18.5447ZM12.3834 10.0817V3.35789L17.7673 13.1884L12.6419 10.1663C12.6419 10.1663 12.5655 10.1244 12.5127 10.1076C12.4636 10.092 12.3834 10.0817 12.3834 10.0817ZM15.674 23.1711C16.2321 23.1711 16.6845 22.6345 16.6845 21.9726C16.6845 21.3107 16.2321 20.7741 15.674 20.7741C15.116 20.7741 14.6635 21.3107 14.6635 21.9726C14.6635 22.6345 15.116 23.1711 15.674 23.1711ZM16.7785 15.8891C16.7785 15.6019 17.0114 15.3691 17.2986 15.3691C17.5858 15.3691 17.8186 15.6019 17.8186 15.8891V19.5349C17.8186 19.8222 17.5858 20.055 17.2986 20.055C17.0114 20.055 16.7785 19.8222 16.7785 19.5349V15.8891ZM15.6512 14.3821C15.3653 14.3821 15.1335 14.6139 15.1335 14.8998V18.6288C15.1335 18.9147 15.3653 19.1465 15.6512 19.1465C15.9371 19.1465 16.1689 18.9147 16.1689 18.6288V14.8998C16.1689 14.6139 15.9371 14.3821 15.6512 14.3821ZM13.5182 14.0853C13.5182 13.795 13.7535 13.5596 14.0439 13.5596C14.3342 13.5596 14.5695 13.795 14.5695 14.0853V17.8298C14.5695 18.1201 14.3342 18.3555 14.0439 18.3555C13.7535 18.3555 13.5182 18.1201 13.5182 17.8298V14.0853Z" fill="#707070"/>
</svg>
