<svg width="25" height="25" viewBox="0 0 25 25" fill="none" xmlns="http://www.w3.org/2000/svg">
<path d="M23.0244 8.0591V3.36593C23.0244 2.05926 21.9651 1 20.6585 1H3.36593C2.05926 1 1 2.05926 1 3.36593V8.0591M23.0244 8.0591V20.6585C23.0244 21.9651 21.9651 23.0244 20.6585 23.0244H16H8.5H3.36593C2.05926 23.0244 1 21.9651 1 20.6585V8.0591M23.0244 8.0591L21.6766 8.50835C20.9304 8.75709 20.1094 8.61871 19.4859 8.13913L18.3945 7.29958C17.4385 6.56415 16.1316 6.48304 15.0919 7.09461L13.6099 7.96639C12.6328 8.54114 11.4131 8.50681 10.4699 7.87801L9.27713 7.08282C8.35575 6.46856 7.16842 6.42051 6.20041 6.95829L3.78507 8.30014C3.10239 8.67941 2.27652 8.69736 1.578 8.3481L1 8.0591" stroke="black" stroke-width="2"/>
<path d="M8.60718 16.9674C8.60718 15.0869 10.1316 13.5625 12.0121 13.5625C13.8925 13.5625 15.4169 15.0869 15.4169 16.9674V22.5747H8.60718V16.9674Z" stroke="black" stroke-width="2"/>
</svg>
