<svg width="28" height="29" viewBox="0 0 28 29" fill="none" xmlns="http://www.w3.org/2000/svg">
<path fill-rule="evenodd" clip-rule="evenodd" d="M10.3094 8.56736C10.3094 6.66757 11.8495 5.12748 13.7493 5.12748C15.6491 5.12748 17.1892 6.66757 17.1892 8.56736C17.1892 10.4671 15.6491 12.0072 13.7493 12.0072C11.8495 12.0072 10.3094 10.4671 10.3094 8.56736ZM13.7493 2.83423C10.583 2.83423 8.01619 5.40104 8.01619 8.56736C8.01619 11.7337 10.583 14.3005 13.7493 14.3005C16.9156 14.3005 19.4824 11.7337 19.4824 8.56736C19.4824 5.40104 16.9156 2.83423 13.7493 2.83423ZM9.16301 16.5938C7.64249 16.5938 6.18424 17.1978 5.10907 18.273C4.0339 19.3481 3.42988 20.8064 3.42988 22.3269V24.6201C3.42988 25.2534 3.94324 25.7668 4.57651 25.7668C5.20977 25.7668 5.72313 25.2534 5.72313 24.6201V22.3269C5.72313 21.4146 6.08555 20.5396 6.73065 19.8945C7.37575 19.2494 8.2507 18.887 9.16301 18.887H18.336C19.2483 18.887 20.1233 19.2494 20.7684 19.8945C21.4135 20.5396 21.7759 21.4146 21.7759 22.3269V24.6201C21.7759 25.2534 22.2892 25.7668 22.9225 25.7668C23.5558 25.7668 24.0691 25.2534 24.0691 24.6201V22.3269C24.0691 20.8064 23.4651 19.3481 22.3899 18.273C21.3148 17.1978 19.8565 16.5938 18.336 16.5938H9.16301Z" fill="url(#paint0_linear_11222_27573)"/>
<defs>
<linearGradient id="paint0_linear_11222_27573" x1="22.0846" y1="-3.33991" x2="0.53869" y2="0.275651" gradientUnits="userSpaceOnUse">
<stop stop-color="#DF9856"/>
<stop offset="0.489583" stop-color="#DE6CD3"/>
<stop offset="0.942708" stop-color="#AD68E3"/>
</linearGradient>
</defs>
</svg>
