<svg width="38" height="38" viewBox="0 0 38 38" fill="none" xmlns="http://www.w3.org/2000/svg">
<g filter="url(#filter0_d_17583_37926)">
<circle cx="19" cy="16.688" r="16" fill="white"/>
</g>
<path d="M22.8588 10.4457C23.0465 10.2508 23.2692 10.0962 23.5144 9.99079C23.7596 9.88533 24.0223 9.83105 24.2877 9.83105C24.553 9.83105 24.8158 9.88533 25.061 9.99079C25.3061 10.0962 25.5289 10.2508 25.7165 10.4457C25.9042 10.6405 26.053 10.8718 26.1545 11.1264C26.2561 11.381 26.3084 11.6539 26.3084 11.9295C26.3084 12.205 26.2561 12.4779 26.1545 12.7325C26.053 12.9871 25.9042 13.2184 25.7165 13.4132L16.0719 23.4288L12.1426 24.5417L13.2142 20.4613L22.8588 10.4457Z" stroke="#707070" stroke-width="2" stroke-linecap="round" stroke-linejoin="round"/>
<defs>
<filter id="filter0_d_17583_37926" x="0.675666" y="0.687988" width="36.6487" height="36.6487" filterUnits="userSpaceOnUse" color-interpolation-filters="sRGB">
<feFlood flood-opacity="0" result="BackgroundImageFix"/>
<feColorMatrix in="SourceAlpha" type="matrix" values="0 0 0 0 0 0 0 0 0 0 0 0 0 0 0 0 0 0 127 0" result="hardAlpha"/>
<feOffset dy="2.32433"/>
<feGaussianBlur stdDeviation="1.16217"/>
<feComposite in2="hardAlpha" operator="out"/>
<feColorMatrix type="matrix" values="0 0 0 0 0 0 0 0 0 0 0 0 0 0 0 0 0 0 0.1 0"/>
<feBlend mode="normal" in2="BackgroundImageFix" result="effect1_dropShadow_17583_37926"/>
<feBlend mode="normal" in="SourceGraphic" in2="effect1_dropShadow_17583_37926" result="shape"/>
</filter>
</defs>
</svg>
