<svg width="18" height="20" viewBox="0 0 18 20" fill="none" xmlns="http://www.w3.org/2000/svg">
<path d="M4.01152 10.0352C4.01152 9.57334 4.38593 9.19893 4.84778 9.19893H11.5379C11.9998 9.19893 12.3742 9.57334 12.3742 10.0352C12.3742 10.4971 11.9998 10.8715 11.5379 10.8715H4.84778C4.38593 10.8715 4.01152 10.4971 4.01152 10.0352Z" fill="url(#paint0_linear_20558_24935)"/>
<path d="M4.01152 6.69006C4.01152 6.22821 4.38593 5.8538 4.84778 5.8538H6.52032C6.98218 5.8538 7.35659 6.22821 7.35659 6.69006C7.35659 7.15192 6.98218 7.52633 6.52032 7.52633H4.84778C4.38593 7.52633 4.01152 7.15192 4.01152 6.69006Z" fill="url(#paint1_linear_20558_24935)"/>
<path fill-rule="evenodd" clip-rule="evenodd" d="M3.17547 0C2.5101 0 1.87197 0.264319 1.40148 0.734811C0.930991 1.2053 0.666672 1.84343 0.666672 2.5088V15.8891C0.666672 16.5545 0.930991 17.1926 1.40148 17.6631C1.87198 18.1336 2.5101 18.3979 3.17547 18.3979H12.2078L13.2145 19.4046C13.3317 19.5218 13.4907 19.5876 13.6565 19.5876C13.8222 19.5876 13.9812 19.5218 14.0984 19.4046L17.2105 16.2925C17.4485 16.0546 17.6373 15.7722 17.766 15.4614C17.8948 15.1505 17.9611 14.8174 17.9611 14.4809C17.9611 14.1445 17.8948 13.8113 17.766 13.5005C17.6373 13.1897 17.4486 12.9074 17.2107 12.6696C16.9729 12.4317 16.6904 12.2428 16.3796 12.114C16.1679 12.0263 15.9459 11.9676 15.7195 11.9391V5.85387C15.7195 5.83008 15.7185 5.80639 15.7165 5.78286C15.7025 5.61699 15.6402 5.46489 15.5436 5.34075C15.5223 5.31341 15.4993 5.28728 15.4746 5.26254L10.4569 0.244937C10.4349 0.222844 10.4117 0.202114 10.3875 0.182803C10.2451 0.0689149 10.0646 0.000611848 9.86821 4.03204e-06L9.86562 0H3.17547ZM14.047 12.305V6.69014H9.86557C9.40371 6.69014 9.0293 6.31573 9.0293 5.85387V1.67254H3.17547C2.95368 1.67254 2.74097 1.76064 2.58414 1.91747C2.42731 2.0743 2.33921 2.28701 2.33921 2.5088V15.8891C2.33921 16.1109 2.42731 16.3236 2.58414 16.4804C2.74097 16.6372 2.95368 16.7254 3.17547 16.7254H10.5353L10.1023 16.2924C9.62188 15.8119 9.35197 15.1603 9.35197 14.4809C9.35197 14.3922 9.35658 14.3039 9.36566 14.2164H4.84778C4.38593 14.2164 4.01152 13.842 4.01152 13.3801C4.01152 12.9183 4.38593 12.5439 4.84778 12.5439H10.2373C10.7013 12.1423 11.296 11.9191 11.9138 11.9191C12.5613 11.9191 13.1836 12.1643 13.6564 12.6032C13.7769 12.4913 13.9077 12.3915 14.047 12.305ZM10.7018 2.85515V5.01761H12.8643L10.7018 2.85515ZM14.8972 13.2688C15.0563 13.2029 15.2269 13.1689 15.3992 13.1689C15.5714 13.1689 15.742 13.2029 15.9011 13.2688C16.0603 13.3348 16.2048 13.4314 16.3266 13.5532C16.4485 13.675 16.5453 13.8198 16.6113 13.979C16.6772 14.1381 16.7111 14.3087 16.7111 14.4809C16.7111 14.6532 16.6772 14.8237 16.6113 14.9829C16.5453 15.142 16.4487 15.2866 16.3268 15.4084L13.6565 18.0788L10.9862 15.4085C10.7402 15.1625 10.602 14.8288 10.602 14.4809C10.602 14.133 10.7402 13.7994 10.9862 13.5533C11.2322 13.3073 11.5659 13.1691 11.9138 13.1691C12.2617 13.1691 12.5953 13.3073 12.8413 13.5533L13.2145 13.9265C13.4586 14.1706 13.8543 14.1706 14.0984 13.9265L14.4716 13.5533C14.5934 13.4315 14.7381 13.3348 14.8972 13.2688Z" fill="url(#paint2_linear_20558_24935)"/>
<defs>
<linearGradient id="paint0_linear_20558_24935" x1="16.2982" y1="-5.27359" x2="-1.77457" y2="-2.29838" gradientUnits="userSpaceOnUse">
<stop stop-color="#DF9856"/>
<stop offset="0.489583" stop-color="#DE6CD3"/>
<stop offset="0.942708" stop-color="#AD68E3"/>
</linearGradient>
<linearGradient id="paint1_linear_20558_24935" x1="16.2982" y1="-5.27359" x2="-1.77457" y2="-2.29838" gradientUnits="userSpaceOnUse">
<stop stop-color="#DF9856"/>
<stop offset="0.489583" stop-color="#DE6CD3"/>
<stop offset="0.942708" stop-color="#AD68E3"/>
</linearGradient>
<linearGradient id="paint2_linear_20558_24935" x1="16.2982" y1="-5.27359" x2="-1.77457" y2="-2.29838" gradientUnits="userSpaceOnUse">
<stop stop-color="#DF9856"/>
<stop offset="0.489583" stop-color="#DE6CD3"/>
<stop offset="0.942708" stop-color="#AD68E3"/>
</linearGradient>
</defs>
</svg>
