<svg width="25" height="25" viewBox="0 0 25 25" fill="none" xmlns="http://www.w3.org/2000/svg">
<g clip-path="url(#clip0_17948_11980)">
<path d="M12.5 15.625C14.2259 15.625 15.625 14.2259 15.625 12.5C15.625 10.7741 14.2259 9.375 12.5 9.375C10.7741 9.375 9.375 10.7741 9.375 12.5C9.375 14.2259 10.7741 15.625 12.5 15.625Z" stroke="black" stroke-width="2.24787" stroke-linecap="round" stroke-linejoin="round"/>
<path d="M20.2077 15.6251C20.069 15.9393 20.0277 16.2878 20.0889 16.6257C20.1502 16.9636 20.3113 17.2754 20.5514 17.5209L20.6139 17.5834C20.8076 17.7769 20.9613 18.0067 21.0661 18.2596C21.171 18.5125 21.2249 18.7836 21.2249 19.0574C21.2249 19.3312 21.171 19.6023 21.0661 19.8552C20.9613 20.1081 20.8076 20.3378 20.6139 20.5313C20.4204 20.725 20.1907 20.8787 19.9378 20.9835C19.6849 21.0884 19.4138 21.1423 19.14 21.1423C18.8662 21.1423 18.5951 21.0884 18.3422 20.9835C18.0893 20.8787 17.8595 20.725 17.666 20.5313L17.6035 20.4688C17.358 20.2287 17.0462 20.0676 16.7083 20.0063C16.3704 19.9451 16.0219 19.9864 15.7077 20.1251C15.3996 20.2571 15.1368 20.4764 14.9518 20.7558C14.7667 21.0353 14.6674 21.3628 14.666 21.698V21.8751C14.666 22.4276 14.4465 22.9575 14.0558 23.3482C13.6651 23.7389 13.1352 23.9584 12.5827 23.9584C12.0301 23.9584 11.5002 23.7389 11.1095 23.3482C10.7188 22.9575 10.4993 22.4276 10.4993 21.8751V21.7813C10.4913 21.4365 10.3797 21.1022 10.179 20.8216C9.97841 20.5411 9.69803 20.3275 9.37435 20.2084C9.06017 20.0698 8.71165 20.0284 8.37374 20.0897C8.03582 20.1509 7.72402 20.312 7.47852 20.5522L7.41602 20.6147C7.22253 20.8084 6.99276 20.962 6.73985 21.0669C6.48694 21.1717 6.21584 21.2257 5.94206 21.2257C5.66828 21.2257 5.39718 21.1717 5.14427 21.0669C4.89135 20.962 4.66158 20.8084 4.4681 20.6147C4.2744 20.4212 4.12073 20.1914 4.01589 19.9385C3.91105 19.6856 3.85709 19.4145 3.85709 19.1407C3.85709 18.8669 3.91105 18.5958 4.01589 18.3429C4.12073 18.09 4.2744 17.8602 4.4681 17.6667L4.5306 17.6042C4.77074 17.3587 4.93183 17.0469 4.9931 16.709C5.05437 16.3711 5.01301 16.0226 4.87435 15.7084C4.7423 15.4003 4.52305 15.1376 4.24358 14.9525C3.96411 14.7674 3.63663 14.6681 3.30143 14.6667H3.12435C2.57181 14.6667 2.04191 14.4473 1.65121 14.0566C1.26051 13.6659 1.04102 13.1359 1.04102 12.5834C1.04102 12.0309 1.26051 11.501 1.65121 11.1103C2.04191 10.7196 2.57181 10.5001 3.12435 10.5001H3.2181C3.56288 10.492 3.89727 10.3804 4.17779 10.1798C4.4583 9.97915 4.67197 9.69876 4.79102 9.37508C4.92968 9.0609 4.97104 8.71238 4.90977 8.37447C4.8485 8.03656 4.68741 7.72475 4.44727 7.47925L4.38477 7.41675C4.19106 7.22326 4.0374 6.9935 3.93256 6.74058C3.82772 6.48767 3.77375 6.21657 3.77375 5.94279C3.77375 5.66901 3.82772 5.39791 3.93256 5.145C4.0374 4.89208 4.19106 4.66232 4.38477 4.46883C4.57825 4.27513 4.80802 4.12147 5.06093 4.01662C5.31384 3.91178 5.58494 3.85782 5.85872 3.85782C6.13251 3.85782 6.4036 3.91178 6.65652 4.01662C6.90943 4.12147 7.1392 4.27513 7.33268 4.46883L7.39518 4.53133C7.64068 4.77147 7.95249 4.93257 8.2904 4.99384C8.62831 5.05511 8.97683 5.01374 9.29102 4.87508H9.37435C9.68244 4.74304 9.9452 4.52379 10.1303 4.24432C10.3154 3.96485 10.4147 3.63736 10.416 3.30216V3.12508C10.416 2.57255 10.6355 2.04264 11.0262 1.65194C11.4169 1.26124 11.9468 1.04175 12.4993 1.04175C13.0519 1.04175 13.5818 1.26124 13.9725 1.65194C14.3632 2.04264 14.5827 2.57255 14.5827 3.12508V3.21883C14.584 3.55403 14.6833 3.88151 14.8684 4.16098C15.0535 4.44045 15.3163 4.6597 15.6244 4.79175C15.9385 4.93041 16.2871 4.97177 16.625 4.9105C16.9629 4.84923 17.2747 4.68814 17.5202 4.448L17.5827 4.3855C17.7762 4.1918 18.0059 4.03813 18.2588 3.93329C18.5118 3.82845 18.7829 3.77448 19.0566 3.77448C19.3304 3.77448 19.6015 3.82845 19.8544 3.93329C20.1073 4.03813 20.3371 4.1918 20.5306 4.3855C20.7243 4.57898 20.878 4.80875 20.9828 5.06166C21.0877 5.31458 21.1416 5.58567 21.1416 5.85946C21.1416 6.13324 21.0877 6.40434 20.9828 6.65725C20.878 6.91016 20.7243 7.13993 20.5306 7.33342L20.4681 7.39592C20.228 7.64141 20.0669 7.95322 20.0056 8.29114C19.9443 8.62905 19.9857 8.97757 20.1244 9.29175V9.37508C20.2564 9.68317 20.4756 9.94593 20.7551 10.131C21.0346 10.3161 21.3621 10.4154 21.6973 10.4167H21.8744C22.4269 10.4167 22.9568 10.6362 23.3475 11.0269C23.7382 11.4176 23.9577 11.9475 23.9577 12.5001C23.9577 13.0526 23.7382 13.5825 23.3475 13.9732C22.9568 14.3639 22.4269 14.5834 21.8744 14.5834H21.7806C21.4454 14.5848 21.1179 14.6841 20.8384 14.8692C20.559 15.0542 20.3397 15.317 20.2077 15.6251V15.6251Z" stroke="black" stroke-width="2.24787" stroke-linecap="round" stroke-linejoin="round"/>
</g>
<defs>
<clipPath id="clip0_17948_11980">
<rect width="25" height="25" fill="white"/>
</clipPath>
</defs>
</svg>
