<svg width="24" height="25" viewBox="0 0 24 25" fill="none" xmlns="http://www.w3.org/2000/svg">
<path fill-rule="evenodd" clip-rule="evenodd" d="M12.0001 1.5C9.95057 1.5 7.99548 2.35532 6.56189 3.8606C5.12987 5.36421 4.33341 7.39358 4.33341 9.5C4.33341 13.4439 3.52958 15.9073 2.77933 17.3515C2.40315 18.0757 2.03578 18.5527 1.77844 18.8379C1.64952 18.9808 1.54749 19.0764 1.4848 19.1312C1.45343 19.1587 1.43187 19.176 1.42166 19.1839C1.41927 19.1858 1.4175 19.1872 1.41637 19.188C1.06611 19.4398 0.916374 19.8884 1.04633 20.3006C1.17755 20.7169 1.5636 21 2.00007 21H9.09534C9.13028 21.1353 9.17471 21.2683 9.22843 21.3981C9.3792 21.762 9.60018 22.0927 9.87875 22.3713C10.1573 22.6499 10.488 22.8709 10.852 23.0216C11.216 23.1724 11.6061 23.25 12.0001 23.25C12.394 23.25 12.7841 23.1724 13.1481 23.0216C13.5121 22.8709 13.8428 22.6499 14.1214 22.3713C14.4 22.0927 14.6209 21.762 14.7717 21.3981C14.8254 21.2683 14.8699 21.1353 14.9048 21H22.0001C22.4365 21 22.8226 20.7169 22.9538 20.3006C23.0838 19.8883 22.934 19.4396 22.5836 19.1879L22.5785 19.1839C22.5683 19.176 22.5467 19.1587 22.5153 19.1312C22.4527 19.0764 22.3506 18.9808 22.2217 18.8379C21.9644 18.5527 21.597 18.0757 21.2208 17.3515C20.4706 15.9073 19.6667 13.4439 19.6667 9.5C19.6667 7.39359 18.8703 5.36421 17.4383 3.8606C16.0047 2.35532 14.0496 1.5 12.0001 1.5ZM1.41637 19.188C1.41509 19.189 1.41464 19.1893 1.41504 19.189L1.41848 19.1865L1.42166 19.1839L1.42405 19.1826C1.42148 19.1844 1.41892 19.1862 1.41637 19.188ZM19.8595 19H4.14065C4.27732 18.7808 4.41613 18.5392 4.55414 18.2735C5.47056 16.5094 6.33341 13.7228 6.33341 9.5C6.33341 7.89339 6.9417 6.3618 8.01017 5.23991C9.07706 4.11967 10.5134 3.5 12.0001 3.5C13.4868 3.5 14.9231 4.11967 15.99 5.23991C17.0584 6.3618 17.6667 7.89338 17.6667 9.5C17.6667 13.7228 18.5296 16.5094 19.446 18.2735C19.584 18.5392 19.7228 18.7808 19.8595 19Z" fill="black"/>
<path fill-rule="evenodd" clip-rule="evenodd" d="M22.5153 19.1312C22.4527 19.0764 22.3506 18.9808 22.2217 18.8379C22.0421 18.6389 21.8089 18.3464 21.5566 17.9417C21.4475 17.7668 21.3346 17.5706 21.2208 17.3515C20.4706 15.9073 19.6667 13.4439 19.6667 9.5C19.6667 7.39359 18.8703 5.36421 17.4383 3.8606C16.0047 2.35532 14.0496 1.5 12.0001 1.5C9.95057 1.5 7.99548 2.35532 6.56189 3.8606C5.12987 5.36421 4.33341 7.39358 4.33341 9.5C4.33341 13.4439 3.52958 15.9073 2.77933 17.3515C2.70563 17.4934 2.63232 17.6257 2.56018 17.7488C2.52093 17.8158 2.48202 17.8801 2.44358 17.9417L1.84645 18.8993M22.5153 19.1312C22.5467 19.1587 22.5683 19.176 22.5785 19.1839L22.5836 19.1879C22.9107 19.4228 23.063 19.8295 22.976 20.218C22.9699 20.2457 22.9625 20.2732 22.9538 20.3006C22.8226 20.7169 22.4365 21 22.0001 21H14.9048C14.8699 21.1353 14.8254 21.2683 14.7717 21.3981C14.6209 21.762 14.4 22.0927 14.1214 22.3713C13.8428 22.6499 13.5121 22.8709 13.1481 23.0216C12.7841 23.1724 12.394 23.25 12.0001 23.25C11.6061 23.25 11.216 23.1724 10.852 23.0216C10.488 22.8709 10.1573 22.6499 9.87875 22.3713C9.60018 22.0927 9.3792 21.762 9.22843 21.3981C9.17471 21.2683 9.13028 21.1353 9.09534 21H2.00007C1.5636 21 1.17755 20.7169 1.04633 20.3006C1.03769 20.2732 1.03029 20.2457 1.0241 20.218C0.937292 19.8301 1.089 19.4242 1.41504 19.189C1.41549 19.1887 1.41592 19.1884 1.41637 19.188L1.41848 19.1865M1.42405 19.1826L1.42166 19.1839C1.42161 19.184 1.4217 19.1839 1.42166 19.1839M1.42405 19.1826C1.42452 19.1822 1.42478 19.1815 1.42528 19.1811L1.47999 19.2586L1.5592 19.3599L1.84645 18.8993M2.0477 19.985L1.5592 19.3599L1.55562 19.3656L1.47999 19.2586L1.5592 19.3599M4.14065 19C4.27732 18.7808 4.41613 18.5392 4.55414 18.2735C4.74976 17.8969 4.94294 17.4738 5.12581 17C5.7996 15.2543 6.33341 12.8214 6.33341 9.5C6.33341 7.89339 6.9417 6.3618 8.01017 5.23991C9.07706 4.11967 10.5134 3.5 12.0001 3.5C13.4868 3.5 14.9231 4.11967 15.99 5.23991C17.0584 6.3618 17.6667 7.89338 17.6667 9.5C17.6667 12.8214 18.2005 15.2543 18.8743 17C18.9501 17.1963 19.0277 17.384 19.1064 17.5632C19.2177 17.8165 19.3314 18.053 19.446 18.2735C19.5746 18.521 19.7038 18.7477 19.8314 18.9547C19.8408 18.9699 19.8501 18.985 19.8595 19H4.14065ZM11.3386 21C11.4212 21.0728 11.5154 21.1316 11.6174 21.1739C11.7387 21.2241 11.8687 21.25 12.0001 21.25C12.1314 21.25 12.2614 21.2241 12.3828 21.1739C12.4848 21.1316 12.5789 21.0728 12.6615 21H11.3386Z" fill="black"/>
</svg>
