<svg width="33" height="33" viewBox="0 0 33 33" fill="none" xmlns="http://www.w3.org/2000/svg">
<path d="M28.8387 16.9638C28.8408 18.5831 28.5233 20.1869 27.9044 21.6832C27.2855 23.1796 26.3774 24.5391 25.2321 25.6838C24.0862 26.8299 22.7257 27.739 21.2283 28.359C19.731 28.979 18.1261 29.2978 16.5054 29.2972C14.7611 29.301 13.0361 28.9328 11.4454 28.2172L6.2894 28.9798C6.0334 29.0216 5.77107 29.0003 5.52518 28.9177C5.2793 28.8351 5.05731 28.6937 4.87848 28.5058C4.69965 28.3179 4.5694 28.0892 4.49904 27.8395C4.42868 27.5898 4.42034 27.3268 4.47474 27.0732L5.19074 21.8425C4.50966 20.3067 4.16245 18.6438 4.17207 16.9638C4.17 15.3445 4.48751 13.7408 5.10642 12.2444C5.72532 10.7481 6.63344 9.38856 7.77874 8.24383C8.92459 7.09772 10.2851 6.18868 11.7825 5.56868C13.2798 4.94868 14.8847 4.62988 16.5054 4.63049C19.7782 4.63071 22.9171 5.93037 25.2321 8.24383C26.3768 9.389 27.2845 10.7486 27.9034 12.2448C28.5222 13.7411 28.8401 15.3446 28.8387 16.9638Z" stroke="white" stroke-width="2.66667" stroke-linecap="round" stroke-linejoin="round"/>
</svg>
