<svg width="28" height="29" viewBox="0 0 28 29" fill="none" xmlns="http://www.w3.org/2000/svg">
<path d="M24.4906 13.9184C24.4946 15.4537 24.1359 16.9683 23.4437 18.3387C22.623 19.9809 21.3612 21.3622 19.7998 22.3278C18.2384 23.2934 16.4389 23.8052 14.6031 23.8059C13.0677 23.8099 11.5532 23.4512 10.1827 22.759L3.55225 24.9692L5.76241 18.3387C5.0702 16.9683 4.71149 15.4537 4.71549 13.9184C4.7162 12.0825 5.22803 10.2831 6.19364 8.72163C7.15926 7.16021 8.54053 5.89846 10.1827 5.07771C11.5532 4.3855 13.0677 4.02679 14.6031 4.03079H15.1847C17.6093 4.16456 19.8994 5.18794 21.6164 6.905C23.3335 8.62207 24.3569 10.9121 24.4906 13.3367V13.9184Z" stroke="#BEBEBE" stroke-width="2.32649" stroke-linecap="round" stroke-linejoin="round"/>
</svg>
