<svg width="28" height="29" viewBox="0 0 28 29" fill="none" xmlns="http://www.w3.org/2000/svg">
<path fill-rule="evenodd" clip-rule="evenodd" d="M10.3094 8.56736C10.3094 6.66757 11.8495 5.12748 13.7493 5.12748C15.6491 5.12748 17.1892 6.66757 17.1892 8.56736C17.1892 10.4671 15.6491 12.0072 13.7493 12.0072C11.8495 12.0072 10.3094 10.4671 10.3094 8.56736ZM13.7493 2.83423C10.583 2.83423 8.01618 5.40104 8.01618 8.56736C8.01618 11.7337 10.583 14.3005 13.7493 14.3005C16.9156 14.3005 19.4824 11.7337 19.4824 8.56736C19.4824 5.40104 16.9156 2.83423 13.7493 2.83423ZM9.163 16.5938C7.64248 16.5938 6.18423 17.1978 5.10906 18.273C4.03389 19.3481 3.42987 20.8064 3.42987 22.3269V24.6201C3.42987 25.2534 3.94323 25.7668 4.5765 25.7668C5.20976 25.7668 5.72312 25.2534 5.72312 24.6201V22.3269C5.72312 21.4146 6.08554 20.5396 6.73064 19.8945C7.37574 19.2494 8.25069 18.887 9.163 18.887H18.336C19.2483 18.887 20.1233 19.2494 20.7684 19.8945C21.4135 20.5396 21.7759 21.4146 21.7759 22.3269V24.6201C21.7759 25.2534 22.2892 25.7668 22.9225 25.7668C23.5558 25.7668 24.0691 25.2534 24.0691 24.6201V22.3269C24.0691 20.8064 23.4651 19.3481 22.3899 18.273C21.3148 17.1978 19.8565 16.5938 18.336 16.5938H9.163Z" fill="#BEBEBE"/>
</svg>
