<svg width="26" height="25" viewBox="0 0 26 25" fill="none" xmlns="http://www.w3.org/2000/svg">
<path fill-rule="evenodd" clip-rule="evenodd" d="M3.86957 2.5C3.32653 2.5 2.83176 2.68517 2.48894 2.9772C2.15102 3.26506 2 3.61783 2 3.94444V21.0556C2 21.3822 2.15102 21.7349 2.48894 22.0228C2.83176 22.3148 3.32653 22.5 3.86957 22.5H12.4783C13.0305 22.5 13.4783 22.9477 13.4783 23.5C13.4783 24.0523 13.0305 24.5 12.4783 24.5H3.86957C2.89049 24.5 1.92548 24.1701 1.19201 23.5453C0.453634 22.9163 0 22.0256 0 21.0556V3.94444C0 2.97445 0.453634 2.0837 1.19201 1.45472C1.92548 0.829906 2.89049 0.5 3.86957 0.5H12.4783C13.0305 0.5 13.4783 0.947715 13.4783 1.5C13.4783 2.05228 13.0305 2.5 12.4783 2.5H3.86957ZM19.2559 5.42893L25.6199 11.7929C26.0104 12.1834 26.0104 12.8166 25.6199 13.2071L19.2559 19.5711C18.8654 19.9616 18.2322 19.9616 17.8417 19.5711C17.4512 19.1805 17.4512 18.5474 17.8417 18.1569L22.4985 13.5H9.6084C9.05611 13.5 8.6084 13.0523 8.6084 12.5C8.6084 11.9477 9.05611 11.5 9.6084 11.5H22.4985L17.8417 6.84315C17.4512 6.45262 17.4512 5.81946 17.8417 5.42893C18.2322 5.03841 18.8654 5.03841 19.2559 5.42893Z" fill="black"/>
</svg>
