<svg width="25" height="25" viewBox="0 0 25 25" fill="none" xmlns="http://www.w3.org/2000/svg">
<path fill-rule="evenodd" clip-rule="evenodd" d="M20.0045 3C19.7424 3 19.4829 3.05162 19.2408 3.1519C18.9987 3.25219 18.7787 3.39918 18.5934 3.58448L4.48354 17.6944L3.42524 21.5748L7.30567 20.5165L21.4155 6.40661C21.6008 6.22131 21.7478 6.00132 21.8481 5.75921C21.9484 5.5171 22 5.25761 22 4.99555C22 4.73349 21.9484 4.47399 21.8481 4.23188C21.7478 3.98977 21.6008 3.76979 21.4155 3.58448C21.2302 3.39918 21.0103 3.25219 20.7681 3.1519C20.526 3.05162 20.2665 3 20.0045 3ZM18.4754 1.30414C18.9602 1.10335 19.4798 1 20.0045 1C20.5292 1 21.0487 1.10335 21.5335 1.30414C22.0183 1.50494 22.4587 1.79925 22.8298 2.17027C23.2008 2.54129 23.4951 2.98175 23.6959 3.46652C23.8967 3.95128 24 4.47085 24 4.99555C24 5.52025 23.8967 6.03981 23.6959 6.52458C23.4951 7.00934 23.2008 7.4498 22.8298 7.82082L8.5321 22.1185C8.40904 22.2415 8.25601 22.3303 8.08811 22.3761L2.26314 23.9648C1.91693 24.0592 1.54667 23.9609 1.29292 23.7071C1.03917 23.4534 0.940838 23.0831 1.03526 22.7369L2.62389 16.9119C2.66968 16.744 2.75849 16.591 2.88154 16.4679L17.1792 2.17027C17.5502 1.79925 17.9907 1.50494 18.4754 1.30414Z" fill="black"/>
</svg>
