<svg width="97" height="130" viewBox="0 0 97 130" fill="none" xmlns="http://www.w3.org/2000/svg">
<path fill-rule="evenodd" clip-rule="evenodd" d="M45.7713 7.63271C46.4486 7.15858 47.2719 6.93954 48.0953 7.01439L49.2749 7.12163C49.8558 7.17443 50.4142 7.37156 50.8995 7.69508L52.6663 8.87298C53.0797 9.14853 53.4296 9.50891 53.6929 9.93016L55.3462 12.5755L57.6947 16.8028L59.5544 21.452L60.946 26.0906L60.9804 26.2969H34.9155L35.717 22.8237L37.9105 17.1207C37.9831 16.932 38.0719 16.7498 38.176 16.5764L40.5596 12.6037C40.6606 12.4353 40.7757 12.2757 40.9034 12.1266L42.9436 9.74643C43.1348 9.52341 43.3533 9.32534 43.5939 9.15689L45.7713 7.63271ZM67.8144 24.7215L68.0769 26.2969H78.9625C81.7473 26.2969 84.418 27.4032 86.3871 29.3723L86.7647 29.7499C87.8246 30.8098 88.6453 32.0843 89.1715 33.4877L89.7867 35.1282C90.1374 36.0632 90.3528 37.0435 90.4266 38.0393L96.21 116.115C96.3498 118.003 95.9767 119.894 95.1302 121.587L94.0005 123.846C93.4958 124.856 92.8317 125.777 92.0336 126.575L91.8871 126.722C89.918 128.691 87.2472 129.797 84.4625 129.797H12.3009C10.3978 129.797 8.53054 129.28 6.89867 128.301L5.30916 127.347C3.59682 126.319 2.21294 124.825 1.31991 123.039L1.10851 122.616C0.248068 120.895 -0.122995 118.971 0.0358487 117.054L6.63186 37.4304C6.86416 34.626 8.21236 32.0323 10.3741 30.2309L12.1744 28.7306C14.0614 27.1581 16.44 26.2969 18.8964 26.2969H27.7316L28.9516 21.0099L29.0069 20.7702L29.0953 20.5405L31.3771 14.6079C31.5949 14.0416 31.8613 13.4952 32.1735 12.9749L34.5572 9.00221C34.8602 8.49709 35.2053 8.01837 35.5886 7.57111L37.6288 5.19089C38.2023 4.52182 38.8577 3.92761 39.5797 3.42226L41.7571 1.89808C43.789 0.475712 46.2589 -0.18142 48.7291 0.0431382L49.9087 0.150377C51.6512 0.30879 53.3265 0.900155 54.7824 1.87073L56.5492 3.04863C57.7892 3.87528 58.839 4.95642 59.6289 6.22016L61.33 8.94193L61.3778 9.01838L61.4215 9.09718L63.9215 13.5972L64.0293 13.7911L64.1117 13.9971L66.1117 18.9971L66.1696 19.1418L66.2144 19.2912L67.7144 24.2912L67.778 24.5032L67.8144 24.7215ZM61.862 40.2969V33.2969H33.9877L33.862 34.9313V40.2969C33.862 42.2299 32.295 43.7969 30.362 43.7969C28.429 43.7969 26.862 42.2299 26.862 40.2969V34.7969V34.6625L26.8723 34.5285L26.967 33.2969H18.8964C18.0776 33.2969 17.2847 33.584 16.6557 34.1082L14.8554 35.6084C14.1348 36.2089 13.6854 37.0735 13.608 38.0083L7.01195 117.632C6.95901 118.271 7.08269 118.912 7.3695 119.486L7.58089 119.908C7.87856 120.504 8.33986 121.002 8.91063 121.344L10.5001 122.298C11.0441 122.625 11.6665 122.797 12.3009 122.797H84.4625C85.3907 122.797 86.281 122.428 86.9374 121.772L87.0839 121.625C87.3499 121.359 87.5713 121.052 87.7395 120.716L88.8692 118.456C89.1514 117.892 89.2757 117.262 89.2291 116.633L83.4457 38.5564C83.4211 38.2245 83.3493 37.8977 83.2324 37.5861L82.6172 35.9456C82.4418 35.4778 82.1683 35.0529 81.815 34.6996L81.4374 34.3221C80.781 33.6657 79.8907 33.2969 78.9625 33.2969H68.862V40.2969C68.862 42.2299 67.295 43.7969 65.362 43.7969C63.429 43.7969 61.862 42.2299 61.862 40.2969ZM48.6479 66.3085C48.5709 67.9636 47.1669 69.243 45.5118 69.166L37.9831 68.8162C36.4217 68.7436 35.1777 67.4844 35.1241 65.9222L34.8521 57.9898C34.7953 56.3339 36.0917 54.9455 37.7476 54.8888C39.4034 54.832 40.7918 56.1283 40.8486 57.7842L40.9138 59.6861C41.1979 59.4788 41.4897 59.2822 41.7886 59.0969C42.9099 58.4018 44.1316 57.8645 45.4206 57.5079L45.4371 57.5033C47.4308 56.9544 49.508 56.8588 51.52 57.2067C52.5723 57.3886 53.6067 57.6918 54.602 58.1149C56.2875 58.8315 57.8032 59.8672 59.0726 61.1526C59.9901 62.0817 60.779 63.1413 61.4101 64.305C62.9145 67.0786 63.4346 70.2802 62.8856 73.3874C62.3366 76.4946 60.7508 79.3241 58.3871 81.4143C58.2721 81.5159 58.1556 81.6156 58.0377 81.7132L64.324 92.5714C65.4309 94.4833 64.7783 96.9304 62.8664 98.0373C60.9546 99.1441 58.5075 98.4915 57.4006 96.5797L50.6033 84.8388C50.3599 84.8644 50.1154 84.8837 49.87 84.8965C48.7899 84.9529 47.7142 84.8833 46.6634 84.6937C45.5199 84.4873 44.4057 84.1387 43.3474 83.6557V95.0416C43.3474 97.2507 41.5565 99.0416 39.3474 99.0416C37.1382 99.0416 35.3474 97.2507 35.3474 95.0416V76.8151C35.3474 74.6059 37.1382 72.8151 39.3474 72.8151C41.3601 72.8151 43.0257 74.3017 43.3059 76.2368C43.6838 76.6547 44.1078 77.0333 44.5721 77.3646C45.0404 77.6987 45.5408 77.9783 46.0637 78.2005C47.1579 78.6656 48.3503 78.8797 49.5525 78.8169C50.1269 78.7869 50.6926 78.6943 51.2401 78.5428C51.9612 78.3433 52.6509 78.0417 53.2879 77.6468C53.6631 77.4142 54.0201 77.1492 54.3544 76.8537C55.2556 76.0567 55.9563 75.0691 56.4112 73.9714C56.6289 73.4459 56.7904 72.8952 56.8906 72.3281C56.9908 71.7611 57.0278 71.1884 57.0033 70.6201C56.9521 69.433 56.6323 68.2651 56.0587 67.2075C55.846 66.8153 55.6015 66.444 55.3287 66.0969C54.8656 65.5077 54.321 64.988 53.7119 64.5535C53.2494 64.2235 52.7497 63.9426 52.2204 63.7176C51.1125 63.2467 49.9189 63.0392 48.7316 63.1012C48.1642 63.1308 47.5983 63.222 47.0439 63.3753C46.985 63.3916 46.9263 63.4086 46.8679 63.4262C47.9654 63.9134 48.707 65.0369 48.6479 66.3085Z" fill="url(#paint0_linear_11583_26184)"/>
<defs>
<linearGradient id="paint0_linear_11583_26184" x1="98.3763" y1="126.297" x2="131.882" y2="48.0421" gradientUnits="userSpaceOnUse">
<stop stop-color="#DF9856"/>
<stop offset="0.489583" stop-color="#DE6CD3"/>
<stop offset="0.942708" stop-color="#AD68E3"/>
</linearGradient>
</defs>
</svg>
