<svg width="24" height="25" viewBox="0 0 24 25" fill="none" xmlns="http://www.w3.org/2000/svg">
<path fill-rule="evenodd" clip-rule="evenodd" d="M4.96829 3.5C4.6736 3.5 4.39099 3.61706 4.18261 3.82544C3.97424 4.03381 3.85718 4.31643 3.85718 4.61111V19.0858L6.37229 16.5707C6.55983 16.3831 6.81418 16.2778 7.0794 16.2778H19.7461C20.0408 16.2778 20.3234 16.1607 20.5317 15.9523C20.7401 15.744 20.8572 15.4614 20.8572 15.1667V4.61111C20.8572 4.31643 20.7401 4.03381 20.5317 3.82544C20.3234 3.61706 20.0408 3.5 19.7461 3.5H4.96829ZM2.7684 2.41122C3.35185 1.82778 4.14317 1.5 4.96829 1.5H19.7461C20.5712 1.5 21.3625 1.82778 21.946 2.41122C22.5294 2.99467 22.8572 3.78599 22.8572 4.61111V15.1667C22.8572 15.9918 22.5294 16.7831 21.946 17.3666C21.3625 17.95 20.5712 18.2778 19.7461 18.2778H7.49361L3.56428 22.2071C3.27829 22.4931 2.84817 22.5787 2.47449 22.4239C2.10082 22.2691 1.85718 21.9045 1.85718 21.5V4.61111C1.85718 3.78599 2.18495 2.99467 2.7684 2.41122Z" fill="black"/>
</svg>
