<svg width="24" height="24" viewBox="0 0 24 24" fill="none" xmlns="http://www.w3.org/2000/svg">
<path d="M6.02236 12.0422C6.02236 11.488 6.47165 11.0387 7.02588 11.0387H15.054C15.6083 11.0387 16.0576 11.488 16.0576 12.0422C16.0576 12.5965 15.6083 13.0458 15.054 13.0458H7.02588C6.47165 13.0458 6.02236 12.5965 6.02236 12.0422Z" fill="black"/>
<path d="M6.02236 8.02808C6.02236 7.47385 6.47165 7.02456 7.02588 7.02456H9.03292C9.58715 7.02456 10.0364 7.47385 10.0364 8.02808C10.0364 8.58231 9.58715 9.0316 9.03292 9.0316H7.02588C6.47165 9.0316 6.02236 8.58231 6.02236 8.02808Z" fill="black"/>
<path fill-rule="evenodd" clip-rule="evenodd" d="M5.01911 0C4.22066 0 3.45491 0.317183 2.89032 0.881774C2.32573 1.44636 2.00854 2.21211 2.00854 3.01056V19.0669C2.00854 19.8654 2.32573 20.6311 2.89032 21.1957C3.45491 21.7603 4.22066 22.0775 5.01911 22.0775H15.8579L17.066 23.2855C17.2066 23.4262 17.3974 23.5052 17.5963 23.5052C17.7952 23.5052 17.986 23.4262 18.1266 23.2855L21.8611 19.551C22.1467 19.2655 22.3732 18.9267 22.5278 18.5536C22.6823 18.1807 22.7619 17.7809 22.7619 17.3771C22.7619 16.9734 22.6823 16.5736 22.5278 16.2006C22.3733 15.8277 22.1468 15.4889 21.8614 15.2035C21.576 14.918 21.237 14.6913 20.8641 14.5368C20.61 14.4316 20.3436 14.3611 20.0719 14.3269V7.02465C20.0719 6.99609 20.0707 6.96766 20.0683 6.93943C20.0516 6.74038 19.9767 6.55787 19.8608 6.4089C19.8353 6.3761 19.8077 6.34474 19.778 6.31505L13.7569 0.293925C13.7304 0.267412 13.7025 0.242537 13.6735 0.219363C13.5026 0.0826978 13.2861 0.000734218 13.0504 4.83845e-06L13.0473 0H5.01911ZM18.0649 14.766V8.02817H13.0472C12.493 8.02817 12.0437 7.57888 12.0437 7.02465V2.00704H5.01911C4.75296 2.00704 4.49771 2.11277 4.30951 2.30097C4.12132 2.48916 4.01559 2.74441 4.01559 3.01056V19.0669C4.01559 19.3331 4.12132 19.5883 4.30951 19.7765C4.49771 19.9647 4.75296 20.0704 5.01911 20.0704H13.8509L13.3313 19.5508C12.7548 18.9743 12.4309 18.1924 12.4309 17.3771C12.4309 17.2706 12.4364 17.1647 12.4473 17.0597H7.02588C6.47165 17.0597 6.02236 16.6104 6.02236 16.0562C6.02236 15.5019 6.47165 15.0526 7.02588 15.0526H13.4933C14.0501 14.5707 14.7638 14.303 15.5051 14.303C16.2821 14.303 17.0288 14.5972 17.5963 15.1239C17.7409 14.9896 17.8978 14.8698 18.0649 14.766ZM14.0507 3.42618V6.02113H16.6457L14.0507 3.42618ZM19.0852 15.9226C19.2761 15.8435 19.4808 15.8027 19.6875 15.8027C19.8942 15.8027 20.0989 15.8435 20.2899 15.9226C20.4809 16.0017 20.6544 16.1177 20.8005 16.2639C20.9467 16.41 21.0629 16.5838 21.142 16.7747C21.2212 16.9657 21.2619 17.1704 21.2619 17.3771C21.2619 17.5838 21.2212 17.7885 21.142 17.9795C21.0629 18.1704 20.9469 18.3439 20.8007 18.4901L17.5963 21.6945L14.392 18.4902C14.0968 18.195 13.9309 17.7946 13.9309 17.3771C13.9309 16.9596 14.0968 16.5592 14.392 16.264C14.6872 15.9688 15.0876 15.803 15.5051 15.803C15.9225 15.803 16.3229 15.9688 16.6181 16.264L17.066 16.7118C17.3589 17.0047 17.8337 17.0047 18.1266 16.7118L18.5744 16.264C18.7206 16.1178 18.8942 16.0017 19.0852 15.9226Z" fill="black"/>
</svg>
