<svg width="21" height="21" viewBox="0 0 21 21" fill="none" xmlns="http://www.w3.org/2000/svg">
<path fill-rule="evenodd" clip-rule="evenodd" d="M2.80494 0C1.25581 0 0 1.25582 0 2.80494V17.2154C0 18.7645 1.25581 20.0203 2.80494 20.0203H17.2154C18.7645 20.0203 20.0203 18.7645 20.0203 17.2154V2.80494C20.0203 1.25582 18.7645 0 17.2154 0H2.80494ZM1.66667 2.80494C1.66667 2.17629 2.17629 1.66667 2.80494 1.66667H17.2154C17.844 1.66667 18.3537 2.17629 18.3537 2.80494V6.11528L17.8003 6.29972C17.4413 6.41939 17.0463 6.35282 16.7464 6.12209L15.8369 5.42247C14.7707 4.60237 13.3134 4.51192 12.1541 5.19389L10.919 5.92038C10.3801 6.23739 9.70742 6.21845 9.18718 5.87163L8.19319 5.20897C7.16575 4.52401 5.84174 4.47042 4.76231 5.07011L2.74953 6.18832C2.42108 6.37079 2.02374 6.37943 1.68768 6.21139L1.66667 6.20089V2.80494ZM18.3274 7.88086L18.3537 7.87211V17.2154C18.3537 17.844 17.844 18.3537 17.2154 18.3537H13.6808V14.1397C13.6808 12.1124 12.0373 10.469 10.01 10.469C7.98276 10.469 6.33932 12.1124 6.33932 14.1397V18.3537H2.80494C2.17629 18.3537 1.66667 17.844 1.66667 17.2154V7.94773C2.30562 8.07065 2.97626 7.96895 3.55893 7.64525L5.57171 6.52704C6.10562 6.23042 6.7605 6.25693 7.26869 6.59572L8.26268 7.25838C9.31447 7.95957 10.6745 7.99785 11.7641 7.35693L12.9991 6.63045C13.5725 6.29313 14.2934 6.33787 14.8207 6.74351L15.7302 7.44312C16.4693 8.0117 17.4427 8.17575 18.3274 7.88086ZM12.0141 14.1397V17.9791H8.00598V14.1397C8.00598 13.0329 8.90323 12.1356 10.01 12.1356C11.1169 12.1356 12.0141 13.0329 12.0141 14.1397Z" fill="url(#paint0_linear_20558_24853)"/>
<defs>
<linearGradient id="paint0_linear_20558_24853" x1="18.0953" y1="-5.39009" x2="-2.67107" y2="-1.51814" gradientUnits="userSpaceOnUse">
<stop stop-color="#DF9856"/>
<stop offset="0.489583" stop-color="#DE6CD3"/>
<stop offset="0.942708" stop-color="#AD68E3"/>
</linearGradient>
</defs>
</svg>
