<svg width="106" height="39" viewBox="0 0 106 39" fill="none" xmlns="http://www.w3.org/2000/svg">
<path d="M5.112 17.936L5.592 23.696L5.4 22.928C5.944 21.712 6.696 20.672 7.656 19.808C8.648 18.944 9.672 18.288 10.728 17.84C11.816 17.36 12.728 17.12 13.464 17.12L13.224 21.92C11.72 21.824 10.392 22.112 9.24 22.784C8.12 23.456 7.24 24.352 6.6 25.472C5.96 26.592 5.64 27.792 5.64 29.072V38H0.792V17.936H5.112ZM27.6375 38.48C25.3335 38.48 23.3495 38.032 21.6855 37.136C20.0215 36.208 18.7415 34.944 17.8455 33.344C16.9495 31.712 16.5015 29.872 16.5015 27.824C16.5015 25.84 16.9975 24.048 17.9895 22.448C19.0135 20.816 20.3735 19.52 22.0695 18.56C23.7655 17.6 25.6535 17.12 27.7335 17.12C30.4215 17.12 32.6455 17.904 34.4055 19.472C36.1975 21.008 37.3975 23.184 38.0055 26L21.6375 31.664L20.4855 28.88L33.6375 24.08L32.6295 24.752C32.2455 23.728 31.6375 22.848 30.8055 22.112C29.9735 21.344 28.8375 20.96 27.3975 20.96C25.6055 20.96 24.1335 21.584 22.9815 22.832C21.8615 24.048 21.3015 25.616 21.3015 27.536C21.3015 29.584 21.9095 31.232 23.1255 32.48C24.3415 33.728 25.8775 34.352 27.7335 34.352C28.5975 34.352 29.4295 34.208 30.2295 33.92C31.0295 33.6 31.7815 33.184 32.4855 32.672L34.6935 36.272C33.6695 36.944 32.5335 37.488 31.2855 37.904C30.0695 38.288 28.8535 38.48 27.6375 38.48ZM49.2563 38.432C47.7843 38.432 46.3763 38.176 45.0323 37.664C43.6883 37.12 42.5523 36.352 41.6243 35.36L43.6883 32.576C44.5203 33.376 45.3843 33.984 46.2803 34.4C47.2083 34.816 48.0723 35.024 48.8723 35.024C49.8003 35.024 50.6163 34.848 51.3203 34.496C52.0243 34.112 52.3763 33.488 52.3763 32.624C52.3763 31.92 52.1363 31.376 51.6562 30.992C51.2083 30.608 50.6323 30.288 49.9283 30.032C49.2243 29.776 48.4723 29.536 47.6723 29.312C46.0083 28.768 44.7283 28 43.8323 27.008C42.9683 25.984 42.5363 24.784 42.5363 23.408C42.5363 22.352 42.7923 21.36 43.3043 20.432C43.8483 19.472 44.6643 18.704 45.7523 18.128C46.8403 17.52 48.1843 17.216 49.7843 17.216C51.1923 17.216 52.4563 17.392 53.5763 17.744C54.6963 18.064 55.7363 18.624 56.6963 19.424L54.8243 22.352C54.2483 21.776 53.5603 21.344 52.7603 21.056C51.9923 20.736 51.2883 20.56 50.6483 20.528C49.7843 20.528 49.0323 20.736 48.3923 21.152C47.7523 21.536 47.4323 22.064 47.4323 22.736C47.4323 23.408 47.6563 23.952 48.1043 24.368C48.5523 24.752 49.1283 25.072 49.8323 25.328C50.5683 25.552 51.3043 25.792 52.0403 26.048C53.5123 26.528 54.7283 27.184 55.6883 28.016C56.6803 28.848 57.1763 30.064 57.1763 31.664C57.1763 32.88 56.8883 34 56.3123 35.024C55.7363 36.048 54.8563 36.88 53.6723 37.52C52.5203 38.128 51.0483 38.432 49.2563 38.432ZM72.7313 38.48C70.4273 38.48 68.4433 38.032 66.7793 37.136C65.1153 36.208 63.8353 34.944 62.9393 33.344C62.0433 31.712 61.5953 29.872 61.5953 27.824C61.5953 25.84 62.0913 24.048 63.0833 22.448C64.1073 20.816 65.4673 19.52 67.1633 18.56C68.8593 17.6 70.7473 17.12 72.8273 17.12C75.5153 17.12 77.7393 17.904 79.4993 19.472C81.2913 21.008 82.4913 23.184 83.0993 26L66.7313 31.664L65.5793 28.88L78.7313 24.08L77.7233 24.752C77.3393 23.728 76.7313 22.848 75.8993 22.112C75.0673 21.344 73.9313 20.96 72.4913 20.96C70.6993 20.96 69.2273 21.584 68.0753 22.832C66.9553 24.048 66.3953 25.616 66.3953 27.536C66.3953 29.584 67.0033 31.232 68.2193 32.48C69.4353 33.728 70.9713 34.352 72.8273 34.352C73.6913 34.352 74.5233 34.208 75.3233 33.92C76.1233 33.6 76.8753 33.184 77.5793 32.672L79.7873 36.272C78.7633 36.944 77.6273 37.488 76.3793 37.904C75.1633 38.288 73.9473 38.48 72.7313 38.48ZM88.542 0.704H93.39V38H88.542V0.704ZM100.964 0.704H105.812V38H100.964V0.704Z" fill="url(#paint0_linear_17583_37830)"/>
<defs>
<linearGradient id="paint0_linear_17583_37830" x1="99.1346" y1="-34.3846" x2="-12.5844" y2="-1.69261" gradientUnits="userSpaceOnUse">
<stop stop-color="#DF9856"/>
<stop offset="0.489583" stop-color="#DE6CD3"/>
<stop offset="0.942708" stop-color="#AD68E3"/>
</linearGradient>
</defs>
</svg>
