<svg width="59" height="20" viewBox="0 0 59 20" fill="none" xmlns="http://www.w3.org/2000/svg">
<g clip-path="url(#clip0_17583_37942)">
<path d="M9.6978 4.42773C10.0962 5.07944 10.2757 5.75071 10.2757 6.59865C10.2757 9.30315 7.94505 12.8165 6.05342 15.2835H1.73281L0 5.01988L3.78317 4.66408L4.69933 11.9673C5.55535 10.5859 6.61172 8.41498 6.61172 6.93489C6.61172 6.12473 6.47161 5.57291 6.25264 5.11855L9.6978 4.42773Z" fill="#3D95CE"/>
<path d="M14.6008 8.94731C15.297 8.94731 17.0496 8.63184 17.0496 7.64511C17.0496 7.17129 16.7114 6.93495 16.3129 6.93495C15.6156 6.93495 14.7005 7.76323 14.6008 8.94731ZM14.521 10.9015C14.521 12.1064 15.1974 12.5791 16.094 12.5791C17.0704 12.5791 18.0053 12.3427 19.2204 11.731L18.7627 14.8096C17.9066 15.2239 16.5723 15.5004 15.2772 15.5004C11.9921 15.5004 10.8164 13.5269 10.8164 11.0598C10.8164 7.86211 12.7289 4.4668 16.6718 4.4668C18.8427 4.4668 20.0565 5.67154 20.0565 7.34909C20.0567 10.0535 16.5527 10.882 14.521 10.9015Z" fill="#3D95CE"/>
<path d="M30.9752 6.83607C30.9752 7.23076 30.9147 7.80325 30.8546 8.17738L29.7194 15.2833H26.0356L27.0711 8.76941C27.0908 8.59273 27.1511 8.23704 27.1511 8.0397C27.1511 7.56588 26.8523 7.44766 26.493 7.44766C26.0158 7.44766 25.5374 7.66456 25.2189 7.8229L24.0444 15.2834H20.3398L22.0323 4.64459H25.2385L25.2791 5.49375C26.0355 5.00038 27.0315 4.4668 28.4448 4.4668C30.3171 4.46659 30.9752 5.41432 30.9752 6.83607Z" fill="#3D95CE"/>
<path d="M41.9112 5.63142C42.9663 4.88216 43.9625 4.4668 45.3361 4.4668C47.2277 4.4668 47.8856 5.41453 47.8856 6.83627C47.8856 7.23096 47.8254 7.80345 47.7652 8.17758L46.6313 15.2835H42.9465L44.0018 8.63194C44.0212 8.45414 44.062 8.23725 44.062 8.09967C44.062 7.56619 43.7631 7.44786 43.4039 7.44786C42.9463 7.44786 42.489 7.64521 42.1494 7.8231L40.9751 15.2836H37.2913L38.3465 8.63204C38.366 8.45425 38.4055 8.23735 38.4055 8.09977C38.4055 7.56629 38.1065 7.44796 37.7485 7.44796C37.2703 7.44796 36.793 7.66486 36.4744 7.82321L35.299 15.2837H31.5957L33.2879 4.64489H36.455L36.5545 5.53305C37.2913 5.00079 38.2865 4.4672 39.6206 4.4672C40.7758 4.4668 41.5321 4.96026 41.9112 5.63142Z" fill="#3D95CE"/>
<path d="M55.2156 8.73061C55.2156 7.86211 54.9964 7.26997 54.3398 7.26997C52.886 7.26997 52.5874 9.81592 52.5874 11.1183C52.5874 12.1064 52.8665 12.7179 53.5229 12.7179C54.8971 12.7179 55.2156 10.0329 55.2156 8.73061ZM48.8438 10.9611C48.8438 7.60611 50.6356 4.4668 54.7582 4.4668C57.8646 4.4668 59.0002 6.28313 59.0002 8.79018C59.0002 12.1063 57.2277 15.5404 53.0056 15.5404C49.8792 15.5404 48.8438 13.5071 48.8438 10.9611Z" fill="#3D95CE"/>
</g>
<defs>
<clipPath id="clip0_17583_37942">
<rect width="59" height="20" fill="white"/>
</clipPath>
</defs>
</svg>
